{"glyphs":{"0":{"ha":743,"x_min":35,"x_max":708,"o":"m 126 0 l 35 90 l 35 1014 l 143 1122 l 603 1122 l 708 1018 l 708 104 l 606 0 l 126 0 m 492 921 l 253 921 l 253 194 l 492 194 l 492 921 z "},"1":{"ha":449,"x_min":4,"x_max":394,"o":"m 394 0 l 6 0 l 4 196 l 89 196 l 89 828 l 10 828 l 10 965 l 175 1119 l 313 1119 l 313 842 l 313 554 l 313 196 l 394 196 l 394 0 z "},"2":{"ha":751,"x_min":0,"x_max":682,"o":"m 681 0 l 0 0 l 0 581 l 133 711 l 468 711 l 468 894 l 201 894 l 201 788 l 0 788 l 0 1008 l 117 1122 l 568 1122 l 682 1014 l 682 610 l 572 494 l 201 494 l 201 200 l 482 200 l 482 307 l 681 307 l 681 0 z "},"3":{"ha":715,"x_min":0,"x_max":668,"o":"m 0 311 l 211 311 l 211 199 l 460 199 l 460 494 l 217 494 l 217 703 l 454 703 l 454 915 l 214 915 l 214 822 l 0 822 l 0 1014 l 104 1122 l 575 1122 l 668 1028 l 668 703 l 579 622 l 663 535 l 663 108 l 554 0 l 107 0 l 0 89 l 0 311 z "},"4":{"ha":732,"x_min":-1,"x_max":661,"o":"m 661 344 l 593 344 l 593 194 l 660 194 l 660 -1 l 283 -1 l 283 194 l 357 194 l 357 344 l 71 344 l -1 538 l 376 1117 l 588 1117 l 588 532 l 661 532 l 661 344 m 394 532 l 394 814 l 210 532 l 394 532 z "},"5":{"ha":743,"x_min":0,"x_max":681,"o":"m 113 450 l 0 589 l 0 1122 l 676 1122 l 676 819 l 449 819 l 449 915 l 217 915 l 217 672 l 564 672 l 681 558 l 681 97 l 581 0 l 117 0 l 0 117 l 0 315 l 207 315 l 207 200 l 464 200 l 464 450 l 113 450 z "},"6":{"ha":746,"x_min":0,"x_max":675,"o":"m 675 117 l 558 3 l 114 3 l 0 111 l 0 1021 l 92 1124 l 569 1124 l 675 1010 l 675 796 l 456 796 l 456 924 l 214 924 l 214 719 l 569 719 l 675 610 l 675 117 m 458 203 l 458 493 l 208 493 l 208 203 l 458 203 z "},"7":{"ha":692,"x_min":0,"x_max":625,"o":"m 456 0 l 79 0 l 79 196 l 151 196 l 376 903 l 225 903 l 225 786 l 0 786 l 0 1122 l 564 1122 l 625 975 l 393 196 l 456 196 l 456 0 z "},"8":{"ha":728,"x_min":0,"x_max":667,"o":"m 557 0 l 107 0 l 0 111 l 0 515 l 82 613 l 0 708 l 0 1021 l 106 1122 l 558 1122 l 667 1021 l 667 708 l 583 613 l 663 515 l 663 111 l 557 0 m 451 919 l 211 919 l 211 707 l 451 707 l 451 919 m 453 483 l 214 483 l 214 200 l 453 200 l 453 483 z "},"9":{"ha":746,"x_min":0,"x_max":675,"o":"m 583 0 l 106 0 l 0 114 l 0 326 l 219 326 l 219 200 l 463 200 l 463 465 l 106 465 l 0 575 l 0 1007 l 117 1121 l 561 1121 l 675 1013 l 675 103 l 583 0 m 467 921 l 217 921 l 217 692 l 467 692 l 467 921 z "},"ý":{"ha":0,"x_min":0,"x_max":0,"o":""},"\r":{"ha":438,"x_min":0,"x_max":0,"o":""}," ":{"ha":438,"x_min":0,"x_max":0,"o":""},"'":{"ha":294,"x_min":0,"x_max":211,"o":"m 78 889 l 0 889 l 0 1122 l 211 1122 l 211 888 l 122 713 l 6 713 l 78 889 z "},",":{"ha":353,"x_min":35,"x_max":247,"o":"m 114 0 l 35 0 l 35 233 l 247 233 l 247 -4 l 158 -176 l 47 -176 l 114 0 z "},"-":{"ha":556,"x_min":58,"x_max":481,"o":"m 481 476 l 58 476 l 58 669 l 481 669 l 481 476 z "},".":{"ha":354,"x_min":58,"x_max":269,"o":"m 269 0 l 58 0 l 58 233 l 269 233 l 269 0 z "},":":{"ha":404,"x_min":71,"x_max":282,"o":"m 282 222 l 71 222 l 71 456 l 282 456 l 282 222 m 282 583 l 71 583 l 71 817 l 282 817 l 282 583 z "},"A":{"ha":733,"x_min":3,"x_max":682,"o":"m 297 0 l 3 0 l 3 193 l 43 193 l 211 918 l 163 918 l 161 1119 l 494 1119 l 494 921 l 457 921 l 642 196 l 682 196 l 682 0 l 386 0 l 386 196 l 435 196 l 419 257 l 263 257 l 246 196 l 297 196 l 297 0 m 382 407 l 339 581 l 294 407 l 382 407 z "},"B":{"ha":822,"x_min":3,"x_max":765,"o":"m 653 -1 l 6 -1 l 6 194 l 86 194 l 88 924 l 3 924 l 3 1126 l 653 1126 l 765 1026 l 765 681 l 685 585 l 765 501 l 765 121 l 653 -1 m 529 919 l 308 919 l 308 672 l 529 672 l 529 919 m 532 469 l 307 469 l 307 194 l 532 194 l 532 469 z "},"C":{"ha":744,"x_min":0,"x_max":689,"o":"m 469 393 l 689 393 l 689 101 l 588 0 l 106 0 l 0 106 l 0 1032 l 93 1122 l 588 1122 l 689 1022 l 689 806 l 471 806 l 471 921 l 217 921 l 217 196 l 469 196 l 469 393 z "},"D":{"ha":819,"x_min":13,"x_max":758,"o":"m 632 -1 l 14 -1 l 13 193 l 96 193 l 96 921 l 13 921 l 13 1122 l 635 1122 l 758 1014 l 758 111 l 632 -1 m 524 921 l 315 921 l 315 196 l 524 196 l 524 921 z "},"E":{"ha":783,"x_min":-6,"x_max":731,"o":"m 731 0 l 0 0 l 0 196 l 79 196 l 79 924 l -6 924 l -6 1122 l 731 1122 l 731 799 l 515 799 l 515 921 l 299 921 l 299 663 l 467 663 l 467 465 l 299 465 l 299 196 l 518 196 l 518 344 l 731 344 l 731 0 z "},"F":{"ha":781,"x_min":0,"x_max":735,"o":"m 381 0 l 0 0 l 0 196 l 79 196 l 79 921 l 1 921 l 1 1122 l 735 1122 l 735 799 l 521 799 l 521 921 l 299 921 l 299 663 l 471 663 l 471 465 l 299 465 l 299 196 l 381 196 l 381 0 z "},"G":{"ha":788,"x_min":0,"x_max":721,"o":"m 106 0 l 0 106 l 0 1032 l 93 1122 l 619 1122 l 721 1022 l 721 806 l 503 806 l 503 921 l 217 921 l 217 196 l 500 196 l 500 389 l 319 389 l 319 590 l 615 590 l 721 483 l 721 101 l 619 0 l 106 0 z "},"H":{"ha":864,"x_min":10,"x_max":807,"o":"m 311 465 l 311 196 l 390 196 l 390 0 l 10 0 l 13 196 l 92 196 l 92 924 l 11 924 l 11 1122 l 390 1122 l 390 921 l 311 921 l 311 671 l 510 671 l 510 921 l 428 921 l 428 1122 l 807 1122 l 807 921 l 729 921 l 729 465 l 729 196 l 807 196 l 807 0 l 426 0 l 426 196 l 510 196 l 510 465 l 311 465 z "},"I":{"ha":454,"x_min":10,"x_max":390,"o":"m 390 196 l 390 0 l 10 0 l 10 196 l 92 196 l 92 924 l 11 924 l 11 1122 l 390 1122 l 390 921 l 311 921 l 311 465 l 311 196 l 390 196 z "},"J":{"ha":740,"x_min":1,"x_max":682,"o":"m 114 0 l 1 114 l 1 368 l 219 368 l 219 194 l 386 194 l 386 921 l 304 921 l 304 1122 l 682 1122 l 682 921 l 603 921 l 603 114 l 489 0 l 114 0 z "},"K":{"ha":829,"x_min":8,"x_max":786,"o":"m 428 921 l 428 1122 l 786 1122 l 786 921 l 728 921 l 488 603 l 722 196 l 786 196 l 786 0 l 426 0 l 426 196 l 488 196 l 365 433 l 311 357 l 311 196 l 390 196 l 390 0 l 10 0 l 8 196 l 92 196 l 92 924 l 11 924 l 11 1122 l 390 1122 l 390 921 l 313 921 l 313 696 l 485 921 l 428 921 z "},"L":{"ha":781,"x_min":4,"x_max":729,"o":"m 307 196 l 517 196 l 517 344 l 729 344 l 729 0 l 4 0 l 4 196 l 88 196 l 88 924 l 6 924 l 6 1122 l 385 1122 l 385 921 l 307 921 l 307 196 z "},"M":{"ha":1156,"x_min":0,"x_max":1099,"o":"m 708 1121 l 1099 1121 l 1099 918 l 1032 918 l 1032 196 l 1099 196 l 1099 -1 l 746 -1 l 746 196 l 804 196 l 804 608 l 631 -1 l 483 -1 l 313 608 l 313 196 l 383 196 l 383 -1 l 3 -1 l 3 196 l 83 196 l 83 918 l 0 918 l 0 1121 l 410 1121 l 565 364 l 708 1121 z "},"N":{"ha":831,"x_min":0,"x_max":792,"o":"m 371 -1 l 3 -1 l 3 201 l 86 201 l 86 925 l 0 925 l 0 1121 l 325 1121 l 488 642 l 488 929 l 408 929 l 408 1121 l 792 1121 l 792 925 l 713 925 l 713 201 l 792 201 l 792 -1 l 489 -1 l 303 571 l 303 199 l 371 199 l 371 -1 z "},"O":{"ha":740,"x_min":0,"x_max":674,"o":"m 90 0 l 0 90 l 0 1014 l 107 1122 l 568 1122 l 674 1018 l 674 104 l 571 0 l 90 0 m 456 921 l 218 921 l 218 194 l 456 194 l 456 921 z "},"P":{"ha":769,"x_min":32,"x_max":719,"o":"m 421 -1 l 35 -1 l 35 196 l 113 196 l 113 918 l 32 918 l 32 1121 l 611 1121 l 719 1011 l 719 589 l 606 472 l 340 472 l 342 196 l 422 196 l 421 -1 m 485 921 l 338 921 l 338 675 l 485 675 l 485 921 z "},"Q":{"ha":738,"x_min":-1,"x_max":689,"o":"m 106 0 l -1 106 l -1 1014 l 106 1122 l 585 1122 l 689 1019 l 689 82 l 608 0 l 664 -114 l 463 -114 l 407 0 l 106 0 m 479 922 l 217 922 l 217 196 l 306 196 l 278 276 l 439 354 l 479 232 l 479 922 z "},"R":{"ha":767,"x_min":0,"x_max":725,"o":"m 379 0 l 0 0 l 0 196 l 79 196 l 79 921 l 1 921 l 1 1121 l 614 1121 l 719 996 l 719 579 l 601 465 l 532 465 l 683 196 l 725 196 l 725 0 l 411 0 l 411 196 l 457 196 l 318 457 l 308 457 l 308 196 l 379 196 l 379 0 m 488 919 l 308 919 l 308 667 l 488 667 l 488 919 z "},"S":{"ha":743,"x_min":0,"x_max":696,"o":"m 0 331 l 218 331 l 218 194 l 474 194 l 474 465 l 106 465 l 0 568 l 0 1021 l 103 1119 l 581 1119 l 696 1006 l 696 790 l 471 790 l 471 919 l 219 919 l 219 667 l 589 667 l 692 564 l 692 106 l 585 0 l 121 0 l 0 119 l 0 331 z "},"T":{"ha":786,"x_min":0,"x_max":725,"o":"m 551 0 l 178 0 l 178 196 l 251 196 l 251 922 l 181 922 l 181 788 l 0 788 l 0 1117 l 725 1117 l 725 788 l 544 788 l 544 922 l 474 922 l 474 196 l 551 196 l 551 0 z "},"U":{"ha":758,"x_min":15,"x_max":704,"o":"m 525 -4 l 196 -4 l 76 118 l 76 924 l 15 924 l 15 1117 l 317 1117 l 317 921 l 265 921 l 265 196 l 457 196 l 457 921 l 403 921 l 403 1117 l 704 1117 l 704 921 l 646 921 l 646 118 l 525 -4 z "},"V":{"ha":785,"x_min":11,"x_max":713,"o":"m 713 1122 l 713 921 l 649 921 l 456 -1 l 254 -1 l 61 922 l 11 922 l 11 1122 l 332 1122 l 332 922 l 279 922 l 361 364 l 447 924 l 392 924 l 392 1122 l 713 1122 z "},"W":{"ha":1140,"x_min":28,"x_max":1068,"o":"m 431 0 l 232 0 l 96 922 l 28 922 l 28 1122 l 371 1122 l 371 921 l 315 921 l 368 393 l 481 835 l 625 835 l 749 397 l 808 921 l 736 921 l 736 1122 l 1068 1122 l 1068 921 l 1003 921 l 871 0 l 672 0 l 551 506 l 431 0 z "},"X":{"ha":778,"x_min":0,"x_max":721,"o":"m 326 0 l 0 0 l 0 194 l 61 194 l 243 564 l 74 921 l 26 921 l 26 1121 l 339 1121 l 339 921 l 292 921 l 363 761 l 429 919 l 381 919 l 381 1121 l 688 1121 l 688 921 l 626 921 l 467 567 l 660 196 l 721 196 l 721 0 l 400 0 l 400 196 l 453 196 l 364 381 l 278 199 l 326 199 l 326 0 z "},"Y":{"ha":746,"x_min":46,"x_max":707,"o":"m 494 486 l 494 196 l 565 196 l 565 0 l 201 0 l 201 196 l 269 196 l 269 485 l 93 921 l 46 921 l 46 1121 l 360 1121 l 360 921 l 311 921 l 382 746 l 450 919 l 400 919 l 400 1121 l 707 1121 l 707 921 l 646 921 l 494 486 z "},"Z":{"ha":740,"x_min":28,"x_max":683,"o":"m 681 0 l 28 0 l 29 193 l 422 921 l 232 921 l 232 779 l 29 779 l 29 1122 l 683 1122 l 683 921 l 307 196 l 468 196 l 468 363 l 681 363 l 681 0 z "}," ":{"ha":767,"x_min":0,"x_max":0,"o":""},"◼":{"ha":694,"x_min":0,"x_max":0,"o":"m 0 0 l 0 0 l 0 0 l 0 0 l 0 0 z "}}}
